<?xml version="1.0" encoding="utf-8"?>
<!-- Generator: Adobe Illustrator 22.1.0, SVG Export Plug-In . SVG Version: 6.00 Build 0)  -->
<svg version="1.1" id="Layer_1" xmlns="http://www.w3.org/2000/svg" xmlns:xlink="http://www.w3.org/1999/xlink" x="0px" y="0px"
	 viewBox="0 0 1000 338" style="enable-background:new 0 0 1000 338;" xml:space="preserve">
<style type="text/css">
	.st0{fill:#FFFFFF;}
</style>
<g>
	<g>
		<polygon class="st0" points="230.4,94 193.4,94 193.4,53.4 168.5,53.4 168.5,155 193.4,155 193.4,115.2 230.4,115.2 230.4,155 
			255.2,155 255.2,53.4 230.4,53.4 		"/>
		<rect x="286.2" y="53.4" class="st0" width="24.9" height="101.6"/>
		<path class="st0" d="M361.7,82.5c0-5.7,5.7-8,10.8-8c12.2,0,22.5,9,22.5,9l10.5-20.3c0,0-10.8-11.5-32.7-11.5
			c-20.2,0-36,12.4-36,31.1c0,31.3,45.8,30.8,45.8,42.9c0,6.1-5.5,8.1-10.7,8.1c-12.8,0-24.3-10.5-24.3-10.5l-13.1,18.9
			c0,0,13.2,14.5,37.1,14.5c22.9,0,35.8-14.6,35.8-31.6C407.5,93,361.7,95.3,361.7,82.5z"/>
		<polygon class="st0" points="420.3,74.7 451.1,74.7 451.1,155 476,155 476,74.7 506.8,74.7 506.8,53.4 420.3,53.4 		"/>
		<path class="st0" d="M564.1,104.3c0,7-4.9,12.3-11.1,12.3c-6.1,0-11.1-5.3-11.1-12.3c0-6.7,4.9-11.7,11.1-11.7
			C559.2,92.5,564.1,97.6,564.1,104.3z"/>
		<path class="st0" d="M572,52c-30.7,0-53.2,22.7-53.2,51.9c0,29.9,22.5,53.2,53.2,53.2c30.7,0,53.2-23.3,53.2-53.2
			C625.2,74.7,602.7,52,572,52z M553.1,125.7c-12.4,0-21.4-9.4-21.4-21.4c0-11.7,9.1-20.9,21.4-20.9c12.4,0,21.4,9.2,21.4,20.9
			C574.5,116.3,565.4,125.7,553.1,125.7z M609.3,92.6h-15.1v8.6h12.5v8.6h-12.5V125h-10V84h25.1V92.6z"/>
		<path class="st0" d="M712.4,119.5c-2.4-4.3-3.8-6.1-3.8-6.1v-0.3c10.1-5.1,15.2-16.9,15.2-27.7c0-14.8-7.2-25.2-18.8-29.6
			c-4.4-1.7-9.4-2.4-19.8-2.4h-35.4V155h24.9v-34.3h11.7l18.1,34.3h27.7L712.4,119.5z M685.5,99.4h-10.8V74.7h8.4
			c12.5,0,15.3,4.5,15.3,12.2C698.4,95,693.5,99.4,685.5,99.4z"/>
		<path class="st0" d="M803.2,53.4l-11.4,24.4c-3.3,7-6.1,14.6-6.1,14.6h-0.3c0,0-2.8-7.7-6.1-14.6l-11.5-24.4h-28.3l33.5,60V155
			h24.9v-41.6l33.5-60H803.2z"/>
	</g>
	<g>
		<g>
			<path class="st0" d="M80.2,183.4h24.8v101.2H80.2V183.4z"/>
			<path class="st0" d="M135.8,183.4h25.1l28,47.3c4,6.7,8.5,17.3,8.5,17.3h0.3c0,0-1.1-10.9-1.1-17.3v-47.3h24.8v101.2h-24.9
				l-28.2-47.1c-4-6.7-8.5-17.3-8.5-17.3h-0.3c0,0,1.1,10.9,1.1,17.3v47.1h-24.8V183.4z"/>
			<path class="st0" d="M239.4,183.4h26.9l17.8,57.6c2,6.4,3.8,16.3,3.8,16.3h0.3c0,0,1.8-9.9,3.8-16.3l18.1-57.6h26.5L301,284.6
				h-25.8L239.4,183.4z"/>
			<path class="st0" d="M354.8,183.4h63.4v21.2h-38.6V223h30.9v21.2h-30.9v19.1h40.6v21.2h-65.4V183.4z"/>
			<path class="st0" d="M445.1,183.4h25.1l28,47.3c4,6.7,8.5,17.3,8.5,17.3h0.3c0,0-1.1-10.9-1.1-17.3v-47.3h24.8v101.2h-24.9
				l-28.2-47.1c-4-6.7-8.5-17.3-8.5-17.3h-0.3c0,0,1.1,10.9,1.1,17.3v47.1h-24.8V183.4z"/>
			<path class="st0" d="M580.8,204.6h-30.7v-21.2h86.2v21.2h-30.7v80h-24.8V204.6z"/>
			<path class="st0" d="M655.8,183.4h24.8v101.2h-24.8V183.4z"/>
			<path class="st0" d="M757.5,181.7c30.6,0,52.9,22.6,52.9,51.7c0,29.7-22.4,52.9-52.9,52.9s-52.9-23.2-52.9-52.9
				C704.5,204.4,726.9,181.7,757.5,181.7z M757.5,263.7c15.1,0,27.3-13,27.3-30.3c0-16.6-12.2-29-27.3-29s-27.3,12.5-27.3,29
				C730.2,250.6,742.3,263.7,757.5,263.7z"/>
			<path class="st0" d="M834.3,183.4h25.1l28,47.3c4,6.7,8.5,17.3,8.5,17.3h0.3c0,0-1.1-10.9-1.1-17.3v-47.3h24.8v101.2h-24.9
				l-28.2-47.1c-4-6.7-8.5-17.3-8.5-17.3H858c0,0,1.1,10.9,1.1,17.3v47.1h-24.8V183.4z"/>
		</g>
	</g>
</g>
</svg>
